<svg width="512" height="512" viewBox="0 0 512 512" fill="none" xmlns="http://www.w3.org/2000/svg">
<path d="M140.887 436.992H372.105C414.598 436.992 436.992 414.789 436.992 372.871V140.312C436.992 98.3945 414.598 76 372.105 76H140.887C98.5859 76 76 98.3945 76 140.312V372.871C76 414.789 98.5859 436.992 140.887 436.992ZM195.629 337.844C184.527 337.844 175.914 329.23 175.914 317.938C175.914 312.961 178.02 307.984 181.848 304.348L229.508 256.688L181.848 208.836C178.02 205.199 175.914 200.223 175.914 195.246C175.914 184.145 184.527 175.531 195.629 175.531C201.371 175.531 205.773 177.445 209.793 181.273L257.262 228.742L305.305 181.082C309.324 177.062 313.918 175.34 319.469 175.34C330.379 175.34 339.184 183.953 339.184 194.863C339.184 200.223 337.27 204.816 333.25 208.836L285.59 256.688L333.059 304.156C337.078 307.793 338.992 312.77 338.992 317.938C338.992 329.23 330.379 337.844 319.277 337.844C313.344 337.844 308.559 335.93 304.73 332.102L257.262 284.633L210.176 332.102C206.348 335.93 201.371 337.844 195.629 337.844Z" fill="black"/>
</svg>
