<svg width="512" height="512" viewBox="0 0 512 512" fill="none" xmlns="http://www.w3.org/2000/svg">
<path d="M359 449L359 474L409 474L409 449L359 449ZM409 449L409 63L359 63L359 449L409 449Z" fill="#18A0FB"/>
<path d="M103 449L103 474L153 474L153 449L103 449ZM153 449L153 63L103 63L103 449L153 449Z" fill="#18A0FB"/>
<path d="M302.5 255.615L209.5 255.615" stroke="#18A0FB" stroke-width="40"/>
<path d="M286 314L286 199L325.394 256.5L286 314Z" fill="#18A0FB"/>
<path d="M226.5 199L226.5 314L187.106 256.5L226.5 199Z" fill="#18A0FB"/>
</svg>
