<svg width="512" height="512" viewBox="0 0 512 512" fill="none" xmlns="http://www.w3.org/2000/svg">
<path opacity="0.6" d="M103.303 190.002H407.551C424.396 190.002 433.332 180.041 433.332 163.049V147.668C433.332 130.676 424.396 120.715 407.551 120.715H103.303C87.3359 120.715 77.5215 130.676 77.5215 147.668V163.049C77.5215 180.041 86.6035 190.002 103.303 190.002ZM177.717 394.201H333.137C363.312 394.201 375.471 377.795 380.158 348.059L400.812 211.389H110.041L130.842 348.059C135.383 377.941 147.541 394.201 177.717 394.201ZM213.312 353.771C206.135 353.771 200.129 347.766 200.129 340.588C200.129 336.926 201.74 333.996 204.23 331.506L237.043 298.4L204.23 265.295C201.74 262.805 200.129 259.875 200.129 256.213C200.129 249.035 206.135 243.322 213.312 243.322C216.828 243.322 219.465 244.641 222.248 247.131L255.354 280.383L288.898 246.984C291.682 244.494 294.318 243.029 297.834 243.029C305.012 243.029 310.871 248.889 310.871 256.213C310.871 259.729 309.553 262.365 306.916 265.148L273.811 298.4L306.77 331.359C309.26 333.996 310.871 336.779 310.871 340.588C310.871 347.619 304.865 353.771 297.834 353.771C294.025 353.771 291.096 352.16 288.605 349.816L255.354 316.564L222.395 349.816C219.904 352.16 216.828 353.771 213.312 353.771Z" fill="black"/>
</svg>
