<svg width="512" height="512" viewBox="0 0 512 512" fill="none" xmlns="http://www.w3.org/2000/svg">
<path opacity="0.6" d="M269.244 405.92C333.404 405.92 376.324 383.068 376.324 349.23C376.324 319.641 352.008 313.488 352.008 296.203C352.008 272.619 436.529 268.664 436.529 207.141C436.529 146.35 373.688 106.066 280.084 106.066C158.502 106.066 76.4707 167.59 76.4707 258.41C76.4707 346.74 154.254 405.92 269.244 405.92ZM284.186 200.402C270.562 200.402 259.137 189.27 259.137 175.5C259.137 161.73 270.562 150.598 284.186 150.598C298.102 150.598 309.088 161.73 309.088 175.5C309.088 189.416 298.102 200.402 284.186 200.402ZM204.498 224.279C187.213 224.279 173.443 210.656 173.443 193.371C173.443 176.232 187.213 162.756 204.498 162.756C221.344 162.756 235.26 176.232 235.26 193.371C235.26 210.656 221.49 224.279 204.498 224.279ZM355.23 213.146C343.951 213.146 334.723 204.064 334.723 192.785C334.723 181.799 343.951 172.57 355.23 172.57C366.217 172.57 375.299 181.945 375.299 192.785C375.299 203.918 366.363 213.146 355.23 213.146ZM146.783 277.16C133.307 277.16 122.027 265.734 122.027 252.111C122.027 238.928 133.746 227.648 146.783 227.648C160.406 227.648 171.393 238.488 171.393 252.111C171.393 265.734 160.406 277.16 146.783 277.16ZM267.047 349.084C244.635 349.084 226.324 330.627 226.324 308.068C226.324 285.656 244.635 267.199 267.047 267.199C289.605 267.199 308.062 285.656 308.062 308.068C308.062 331.066 290.045 349.084 267.047 349.084Z" fill="black"/>
</svg>
