<svg width="274" height="64" viewBox="0 0 274 64" fill="none" xmlns="http://www.w3.org/2000/svg">
<path d="M8.80388 60.192C8.28388 60.192 7.33055 59.1173 5.94388 56.968C4.55722 54.8533 3.27455 51.7853 2.09588 47.764C0.951883 43.7427 0.379883 38.9413 0.379883 33.36C0.379883 28.16 0.951883 23.688 2.09588 19.944C3.27455 16.2 4.55722 13.3227 5.94388 11.312C7.36522 9.26665 8.30122 8.24399 8.75188 8.24399C9.44522 8.24399 9.94788 8.43465 10.2599 8.81599C10.6066 9.19732 10.8839 9.89065 11.0919 10.896C9.25455 13.392 7.71188 16.512 6.46388 20.256C5.25055 23.9653 4.64388 28.368 4.64388 33.464C4.64388 37.1733 4.97322 40.6227 5.63188 43.812C6.29055 47.0013 7.10522 49.7227 8.07588 51.976C9.08122 54.2293 10.0865 55.928 11.0919 57.072C10.8839 58.112 10.6066 58.892 10.2599 59.412C9.94788 59.932 9.46255 60.192 8.80388 60.192Z" fill="#2B2B2B"/>
<path d="M22.9475 46.464C25.0275 46.464 27.0035 45.9093 28.8755 44.8C29.1181 45.5627 29.2395 46.516 29.2395 47.66C29.2395 48.4573 28.5288 49.1333 27.1075 49.688C25.7208 50.2427 24.0395 50.52 22.0635 50.52C20.2955 50.52 18.8048 50.1907 17.5915 49.532C16.4128 48.8733 15.4768 47.66 14.7835 45.892C14.0901 44.124 13.7435 41.6107 13.7435 38.352C13.7435 34.296 14.1595 31.176 14.9915 28.992C15.8581 26.808 16.9501 25.352 18.2675 24.624C19.5848 23.8613 21.1448 23.48 22.9475 23.48C27.3501 23.48 29.5515 26.2533 29.5515 31.8C29.5515 34.5733 29.3608 36.8267 28.9795 38.56C27.4541 38.872 25.6688 39.0973 23.6235 39.236C21.6128 39.34 19.7581 39.392 18.0595 39.392C18.1288 41.264 18.3368 42.7027 18.6835 43.708C19.0648 44.7133 19.5848 45.424 20.2435 45.84C20.9368 46.256 21.8381 46.464 22.9475 46.464ZM22.4795 27.172C21.2315 27.172 20.2261 27.8307 19.4635 29.148C18.7008 30.4307 18.2501 32.736 18.1115 36.064C21.5435 36.064 23.9181 35.856 25.2355 35.44C25.4088 34.6427 25.4955 33.6027 25.4955 32.32C25.4608 30.3787 25.2355 29.044 24.8195 28.316C24.4035 27.5533 23.6235 27.172 22.4795 27.172Z" fill="#2B2B2B"/>
<path d="M39.6045 50.52C37.3859 50.52 35.6352 50 34.3525 48.96C33.1045 47.8853 32.4805 45.7707 32.4805 42.616C32.4805 39.3227 33.1045 37.0867 34.3525 35.908C35.6352 34.6947 37.3339 34.088 39.4485 34.088C41.0779 34.088 42.3432 34.3133 43.2445 34.764V30.656C43.2445 29.4773 42.9845 28.6627 42.4645 28.212C41.9445 27.7613 41.1299 27.536 40.0205 27.536C38.7725 27.536 37.5072 27.6573 36.2245 27.9C34.9419 28.108 33.9019 28.3853 33.1045 28.732C32.7232 28.004 32.5325 27.1893 32.5325 26.288C32.5325 25.5947 32.7232 25.1267 33.1045 24.884C33.6245 24.5373 34.6299 24.2253 36.1205 23.948C37.6112 23.636 39.2579 23.48 41.0605 23.48C43.3139 23.48 44.9432 23.9653 45.9485 24.936C46.9539 25.9067 47.4565 27.536 47.4565 29.824V32.58C47.4565 40.2067 47.3525 45.5973 47.1445 48.752C46.3125 49.272 45.2552 49.688 43.9725 50C42.6899 50.3467 41.2339 50.52 39.6045 50.52ZM40.3325 46.984C40.8872 46.984 41.4245 46.8973 41.9445 46.724C42.4645 46.5507 42.8459 46.36 43.0885 46.152C43.1925 44.9733 43.2445 42.1653 43.2445 37.728C42.5859 37.3813 41.7712 37.208 40.8005 37.208C39.5525 37.208 38.5819 37.572 37.8885 38.3C37.1952 39.028 36.8485 40.432 36.8485 42.512C36.8485 44.28 37.1259 45.476 37.6805 46.1C38.2699 46.6893 39.1539 46.984 40.3325 46.984Z" fill="#2B2B2B"/>
<path d="M57.2593 50.52C55.3527 50.52 53.81 50.2947 52.6314 49.844C51.4874 49.3933 50.9154 48.752 50.9154 47.92C50.9154 47.088 51.1754 46.2733 51.6954 45.476C53.1167 46.308 54.8327 46.724 56.8433 46.724C58.1953 46.724 59.2354 46.464 59.9634 45.944C60.726 45.3893 61.1073 44.592 61.1073 43.552C61.1073 42.7893 60.9514 42.0787 60.6394 41.42C60.3274 40.7613 59.79 40.1027 59.0274 39.444L53.9833 35.128C51.9727 33.4987 50.9674 31.6613 50.9674 29.616C50.9674 27.7093 51.678 26.2187 53.0993 25.144C54.5554 24.0347 56.6873 23.48 59.4953 23.48C61.8527 23.48 63.5167 23.792 64.4874 24.416C65.4927 25.04 65.9954 25.6987 65.9954 26.392C65.9954 26.704 65.9087 27.068 65.7354 27.484C65.562 27.8653 65.354 28.212 65.1114 28.524C63.586 27.588 61.87 27.12 59.9634 27.12C58.7154 27.12 57.71 27.3453 56.9473 27.796C56.2193 28.2467 55.8554 28.8707 55.8554 29.668C55.8554 30.188 55.994 30.6907 56.2714 31.176C56.5487 31.6267 57.1034 32.1987 57.9354 32.892L62.7714 36.792C63.9154 37.9013 64.7127 38.9413 65.1634 39.912C65.6487 40.8827 65.8914 42.0093 65.8914 43.292C65.8914 45.58 65.1114 47.3653 63.5513 48.648C62.026 49.896 59.9287 50.52 57.2593 50.52Z" fill="#2B2B2B"/>
<path d="M71.3359 60.036C68.5279 60.036 67.1239 59.36 67.1239 58.008C67.1239 57.592 67.1759 57.1587 67.2799 56.708C67.3839 56.292 67.5399 55.9453 67.7479 55.668C68.0946 55.9107 68.5626 56.1013 69.1519 56.24C69.7759 56.3787 70.3999 56.448 71.0239 56.448C71.9253 56.448 72.6879 56.0147 73.3119 55.148C73.9359 54.316 74.4386 52.8773 74.8199 50.832L68.5799 25.144C68.5106 24.8667 68.4759 24.676 68.4759 24.572C68.4759 24.2947 68.7012 24.1387 69.1519 24.104C69.6372 24.0347 70.7986 24 72.6359 24L75.4959 36.48C75.8426 38.1787 76.1373 39.9987 76.3799 41.94C76.6573 43.8467 76.8306 45.0947 76.8999 45.684C76.9693 45.1293 77.1079 43.8987 77.3159 41.992C77.5586 40.0507 77.8359 38.196 78.1479 36.428L80.4879 25.196C80.5572 24.7453 80.6613 24.4507 80.7999 24.312C80.9733 24.1733 81.3199 24.0867 81.8399 24.052C82.3599 24.0173 83.4173 24 85.0119 24L78.6159 51.404C78.0959 53.6227 77.5066 55.356 76.8479 56.604C76.2239 57.852 75.4613 58.736 74.5599 59.256C73.6933 59.776 72.6186 60.036 71.3359 60.036Z" fill="#2B2B2B"/>
<path d="M89.2979 60.192C88.6739 60.192 88.1885 59.932 87.8419 59.412C87.4952 58.892 87.2179 58.112 87.0099 57.072C88.7432 54.784 90.2512 51.664 91.5339 47.712C92.8165 43.7253 93.4579 38.976 93.4579 33.464C93.4579 28.5413 92.8339 24.1213 91.5859 20.204C90.3725 16.252 88.8472 13.1493 87.0099 10.896C87.2525 9.89065 87.5299 9.19732 87.8419 8.81599C88.1885 8.43465 88.6912 8.24399 89.3499 8.24399C89.8005 8.24399 90.7192 9.23199 92.1059 11.208C93.5272 13.184 94.8099 16.044 95.9539 19.788C97.1325 23.532 97.7219 28.056 97.7219 33.36C97.7219 38.6293 97.1325 43.2747 95.9539 47.296C94.8099 51.3173 93.5272 54.472 92.1059 56.76C90.7192 59.048 89.7832 60.192 89.2979 60.192Z" fill="#2B2B2B"/>
<path d="M113.685 45.736C115.973 46.0827 117.689 46.7067 118.833 47.608C120.012 48.4747 120.601 49.8613 120.601 51.768C120.601 54.1947 119.752 56.2053 118.053 57.8C116.355 59.4293 113.876 60.244 110.617 60.244C107.428 60.244 105.244 59.7067 104.065 58.632C102.887 57.592 102.297 56.24 102.297 54.576C102.297 53.3973 102.661 52.2533 103.389 51.144C104.117 50.0693 105.088 49.116 106.301 48.284C104.117 47.6947 103.043 46.7587 103.077 45.476C103.077 44.0893 104.169 42.5293 106.353 40.796C104.204 39.4093 103.129 36.8093 103.129 32.996C103.129 29.7027 103.892 27.2933 105.417 25.768C106.977 24.2427 109.109 23.48 111.813 23.48C112.611 23.48 113.477 23.6187 114.413 23.896H120.601C120.879 24.3813 121.017 25.04 121.017 25.872C121.017 26.9467 120.532 27.484 119.561 27.484C119.111 27.484 118.487 27.3973 117.689 27.224C119.007 28.5413 119.665 30.4307 119.665 32.892C119.665 35.7693 118.989 38.0053 117.637 39.6C116.285 41.1947 114.153 41.992 111.241 41.992C110.34 41.992 109.56 41.9227 108.901 41.784C107.965 42.72 107.497 43.4827 107.497 44.072C107.497 44.488 107.931 44.8 108.797 45.008C109.664 45.1813 111.293 45.424 113.685 45.736ZM111.657 26.548C110.409 26.548 109.404 27.068 108.641 28.108C107.913 29.1133 107.549 30.708 107.549 32.892C107.549 34.9027 107.809 36.3933 108.329 37.364C108.884 38.3 109.941 38.768 111.501 38.768C112.853 38.768 113.841 38.196 114.465 37.052C115.124 35.908 115.453 34.192 115.453 31.904C115.453 30.032 115.141 28.68 114.517 27.848C113.893 26.9813 112.94 26.548 111.657 26.548ZM110.981 56.396C112.715 56.396 114.032 55.98 114.933 55.148C115.869 54.316 116.337 53.38 116.337 52.34C116.337 51.5427 116.164 50.9187 115.817 50.468C115.471 50.052 114.881 49.74 114.049 49.532C113.217 49.2893 112.021 49.116 110.461 49.012L109.421 48.908C108.624 49.532 107.948 50.26 107.393 51.092C106.873 51.924 106.613 52.756 106.613 53.588C106.613 54.524 106.925 55.2173 107.549 55.668C108.173 56.1533 109.317 56.396 110.981 56.396Z" fill="#2B2B2B"/>
<path d="M123.906 25.82C126.125 24.26 128.482 23.48 130.978 23.48C132.261 23.48 133.18 23.6707 133.734 24.052C134.324 24.3987 134.618 24.936 134.618 25.664C134.618 26.5307 134.462 27.3453 134.15 28.108C133.422 27.692 132.59 27.484 131.654 27.484C130.302 27.484 129.158 27.8827 128.222 28.68L128.17 49.168C128.17 49.48 128.101 49.688 127.962 49.792C127.824 49.896 127.408 49.9653 126.714 50C126.021 50 125.085 50 123.906 50V25.82Z" fill="#2B2B2B"/>
<path d="M137.67 25.924C137.67 25.2653 137.774 24.8147 137.982 24.572C138.225 24.2947 138.606 24.1387 139.126 24.104C139.646 24.0347 140.565 24 141.882 24V49.168C141.882 49.48 141.813 49.688 141.674 49.792C141.57 49.896 141.172 49.9653 140.478 50C139.785 50 138.849 50 137.67 50V25.924ZM139.594 20.36C138.208 20.36 137.514 19.3547 137.514 17.344C137.514 15.1253 138.312 14.016 139.906 14.016C140.669 14.016 141.206 14.2413 141.518 14.692C141.83 15.1427 141.986 15.9227 141.986 17.032C141.986 18.072 141.778 18.8867 141.362 19.476C140.946 20.0653 140.357 20.36 139.594 20.36Z" fill="#2B2B2B"/>
<path d="M154.352 50.52C152.584 50.52 151.094 50.2253 149.88 49.636C148.702 49.0467 147.748 47.8333 147.02 45.996C146.292 44.1587 145.928 41.472 145.928 37.936C145.928 33.048 146.656 29.4253 148.112 27.068C149.603 24.676 151.527 23.48 153.884 23.48C155.479 23.48 156.727 23.8267 157.628 24.52V13.704C157.628 13.0453 157.732 12.5947 157.94 12.352C158.183 12.0747 158.564 11.9187 159.084 11.884C159.604 11.8147 160.523 11.78 161.84 11.78V48.96C159.622 50 157.126 50.52 154.352 50.52ZM154.508 46.776C155.826 46.776 156.866 46.516 157.628 45.996V27.796C157.039 27.3453 156.242 27.12 155.236 27.12C152.116 27.12 150.556 30.5693 150.556 37.468C150.556 39.9987 150.712 41.94 151.024 43.292C151.336 44.644 151.77 45.5627 152.324 46.048C152.879 46.5333 153.607 46.776 154.508 46.776Z" fill="#2B2B2B"/>
<path fill-rule="evenodd" clip-rule="evenodd" d="M192 19C192 18.4477 192.448 18 193 18L273 18C273.552 18 274 18.4477 274 19C274 19.5523 273.552 20 273 20L193 20C192.448 20 192 19.5523 192 19Z" fill="black"/>
<path fill-rule="evenodd" clip-rule="evenodd" d="M253 -2.57447e-08C253.552 -1.15263e-08 254 0.447715 254 1L254 63C254 63.5523 253.552 64 253 64C252.448 64 252 63.5523 252 63L252 1C252 0.447715 252.448 -3.99631e-08 253 -2.57447e-08Z" fill="black"/>
<path fill-rule="evenodd" clip-rule="evenodd" d="M192 45C192 44.4477 192.448 44 193 44L273 44C273.552 44 274 44.4477 274 45C274 45.5523 273.552 46 273 46L193 46C192.448 46 192 45.5523 192 45Z" fill="black"/>
<path fill-rule="evenodd" clip-rule="evenodd" d="M212 -2.57447e-08C212.552 -1.15263e-08 213 0.447715 213 1L213 63C213 63.5523 212.552 64 212 64C211.448 64 211 63.5523 211 63L211 1C211 0.447715 211.448 -3.99631e-08 212 -2.57447e-08Z" fill="black"/>
<rect x="212" y="19" width="41" height="26" fill="#FAAF40" stroke="black" stroke-width="2"/>
<path d="M203 18.5C203 14.3579 206.358 11 210.5 11V11C214.642 11 218 14.3579 218 18.5V24C218 25.1046 217.105 26 216 26H210.5C206.358 26 203 22.6421 203 18.5V18.5Z" fill="#D58C1F" stroke="black" stroke-width="2"/>
<path d="M246 40C246 38.8954 246.895 38 248 38H253.5C257.642 38 261 41.3579 261 45.5V45.5C261 49.6421 257.642 53 253.5 53V53C249.358 53 246 49.6421 246 45.5V40Z" fill="#EE4036" stroke="black" stroke-width="2"/>
</svg>
