<svg width="512" height="512" viewBox="0 0 512 512" fill="none" xmlns="http://www.w3.org/2000/svg">
<path d="M256 456.441C365.484 456.441 455.637 366.289 455.637 256.805C455.637 147.512 365.293 57.168 255.809 57.168C146.516 57.168 56.3633 147.512 56.3633 256.805C56.3633 366.289 146.516 456.441 256 456.441ZM256 412.609C169.676 412.609 100.387 343.129 100.387 256.805C100.387 170.48 169.484 101 255.809 101C342.324 101 411.613 170.48 411.805 256.805C411.996 343.129 342.324 412.609 256 412.609ZM251.406 293.938C262.508 293.938 269.973 287.812 270.738 279.773C270.93 279.008 270.93 278.051 271.121 277.477C271.887 268.098 279.16 261.59 290.836 253.934C310.168 241.684 321.461 230.773 321.461 208.953C321.461 177.18 292.559 158.23 257.531 158.23C224.801 158.23 202.023 172.586 195.707 190.77C194.367 194.215 193.602 197.469 193.602 201.297C193.602 210.867 201.258 217.375 210.062 217.375C217.336 217.375 222.504 214.504 226.523 209.145L229.203 205.699C235.52 195.746 243.941 190.961 254.469 190.961C268.633 190.961 278.203 199.383 278.203 211.25C278.203 222.734 270.164 228.285 254.277 239.387C240.879 248.766 231.117 258.336 231.117 274.605V276.52C231.117 288.004 238.391 293.938 251.406 293.938ZM251.215 353.656C264.422 353.656 274.758 344.66 274.758 331.836C274.758 319.012 264.422 310.016 251.215 310.016C238.008 310.016 227.48 319.203 227.48 331.836C227.48 344.66 238.008 353.656 251.215 353.656Z" fill="black"/>
</svg>
