<svg width="512" height="512" viewBox="0 0 512 512" fill="none" xmlns="http://www.w3.org/2000/svg">
<path d="M449 153L474 153L474 103L449 103L449 153ZM449 103L63 103L63 153L449 153L449 103Z" fill="#18A0FB"/>
<path d="M449 409L474 409L474 359L449 359L449 409ZM449 359L63 359L63 409L449 409L449 359Z" fill="#18A0FB"/>
<path d="M255.615 209.5L255.615 302.5" stroke="#18A0FB" stroke-width="40"/>
<path d="M314 226H199L256.5 186.606L314 226Z" fill="#18A0FB"/>
<path d="M199 285.5L314 285.5L256.5 324.894L199 285.5Z" fill="#18A0FB"/>
</svg>
