<svg width="512" height="512" viewBox="0 0 512 512" fill="none" xmlns="http://www.w3.org/2000/svg">
<g clip-path="url(#clip0_150:45)">
<path d="M342.262 124.998C314.083 107.021 281.206 97.8034 247.789 98.5115C214.371 99.2197 181.914 109.821 154.522 128.976C127.13 148.131 106.033 174.978 93.8985 206.123C81.7644 237.267 79.1383 271.311 86.3523 303.948C93.5663 336.585 110.296 366.351 134.427 389.48C158.557 412.609 189.005 428.063 221.918 433.888C254.832 439.713 288.733 435.647 319.336 422.204C349.939 408.761 375.868 386.546 393.845 358.367L361.265 337.582C347.399 359.317 327.399 376.453 303.794 386.821C280.189 397.19 254.04 400.326 228.653 395.833C203.266 391.34 179.781 379.42 161.169 361.58C142.556 343.74 129.652 320.781 124.087 295.607C118.523 270.433 120.549 244.175 129.908 220.152C139.267 196.129 155.54 175.421 176.668 160.647C197.797 145.872 222.832 137.695 248.608 137.149C274.383 136.603 299.742 143.712 321.478 157.578L342.262 124.998Z" fill="black"/>
<path d="M423.631 199.758L273.09 193.091L354.135 66.0525L423.631 199.758Z" fill="black"/>
</g>
<defs>
<clipPath id="clip0_150:45">
<rect width="512" height="512" fill="white"/>
</clipPath>
</defs>
</svg>
